# xmcd CD database file
#
# Track frame offsets:
#	150
#	23798
#	67325
#	103030
#	133817
#	155764
#	188786
#	217596
#
# Disc length: 3337 seconds
#
# Revision: 0
# Processed by: cddbd v1.5.2PL0 Copyright (c) Steve Scherf et al.
# Submitted via: CDex 1.70beta1
#
DISCID=710d0708
DTITLE=Didier Labbe quartet - Tous au souk
DYEAR=2003
DGENRE=Jazz
TTITLE0=le Retour d'Ulysse
TTITLE1=Kahveci
TTITLE2=Tous au souk
TTITLE3=Pajdusco Oro
TTITLE4=Ne t'endors pas, Roget !
TTITLE5=Lazaward
TTITLE6=Carrefour des mers
TTITLE7=Petit coefficient
EXTD=YEAR: 2003
EXTT0=
EXTT1=
EXTT2=
EXTT3=
EXTT4=
EXTT5=
EXTT6=
EXTT7=
PLAYORDER=
